<svg xmlns="http://www.w3.org/2000/svg" width="800" height="450" viewBox="0 0 800 450">
  <defs>
    <linearGradient id="bg" x1="0%" y1="0%" x2="100%" y2="100%">
      <stop offset="0%" style="stop-color:#0f0f12"/>
      <stop offset="50%" style="stop-color:#18181b"/>
      <stop offset="100%" style="stop-color:#09090b"/>
    </linearGradient>
    <linearGradient id="accent" x1="0%" y1="0%" x2="100%" y2="0%">
      <stop offset="0%" style="stop-color:#f97316"/>
      <stop offset="100%" style="stop-color:#fb923c"/>
    </linearGradient>
    <radialGradient id="glow" cx="50%" cy="30%">
      <stop offset="0%" style="stop-color:#f97316;stop-opacity:0.3"/>
      <stop offset="100%" style="stop-color:transparent"/>
    </radialGradient>
  </defs>
  <rect width="800" height="450" fill="url(#bg)"/>
  <circle cx="400" cy="160" r="220" fill="url(#glow)"/>
  <rect x="0" y="360" width="800" height="90" fill="rgba(0,0,0,0.6)"/>
  <text x="400" y="410" text-anchor="middle" font-family="Arial,sans-serif" font-size="26" font-weight="bold" fill="url(#accent)">HIGH-TIER ENTRY</text>
  <text x="400" y="440" text-anchor="middle" font-family="Arial,sans-serif" font-size="13" fill="#a1a1aa">Lv 50–60 · Rank V · Top-Tier Access</text>
  <g transform="translate(400,170)" opacity="0.8">
    <rect x="-90" y="-35" width="180" height="30" rx="6" fill="currentColor" opacity="0.3"/>
    <polygon points="-70,-35 -45,-85 45,-85 70,-35" fill="currentColor" opacity="0.5"/>
    <rect x="-20" y="-100" width="40" height="22" rx="4" fill="currentColor" opacity="0.7"/>
    <circle cx="-75" cy="5" r="35" fill="none" stroke="currentColor" stroke-width="3" opacity="0.4"/>
    <circle cx="75" cy="5" r="35" fill="none" stroke="currentColor" stroke-width="3" opacity="0.4"/>
    <circle cx="-75" cy="5" r="14" fill="currentColor" opacity="0.5"/>
    <circle cx="75" cy="5" r="14" fill="currentColor" opacity="0.5"/>
    <text x="0" y="50" text-anchor="middle" font-size="18" font-weight="bold" opacity="0.6">🔥</text>
  </g>
  <text x="400" y="90" text-anchor="middle" font-family="Arial,sans-serif" font-size="14" font-weight="bold" fill="#f97316" opacity="0.7">LEVEL</text>
</svg>